<mxfile host="app.diagrams.net" modified="2022-11-01T10:35:26.402Z" agent="5.0 (Windows NT 10.0; Win64; x64) AppleWebKit/537.36 (KHTML, like Gecko) Chrome/106.0.0.0 Safari/537.36" etag="wzcHLdImg4bdZUAm1Pnz" version="18.2.0" type="github">
  <diagram id="SOboxm7-q6_CGRCiL7we" name="Page-1">
    <mxGraphModel dx="1955" dy="1195" grid="1" gridSize="10" guides="1" tooltips="1" connect="1" arrows="1" fold="1" page="1" pageScale="1" pageWidth="1654" pageHeight="1169" math="0" shadow="0">
      <root>
        <mxCell id="0" />
        <mxCell id="1" parent="0" />
        <mxCell id="WTigAZbQ8dtSHyCeWu5b-103" value="" style="whiteSpace=wrap;html=1;aspect=fixed;labelBorderColor=none;fontFamily=Helvetica;fontSize=18;strokeWidth=6;fillColor=none;dashed=1;dashPattern=1 1;strokeColor=#66B2FF;" vertex="1" parent="1">
          <mxGeometry x="546" y="20" width="1104" height="1104" as="geometry" />
        </mxCell>
        <mxCell id="WTigAZbQ8dtSHyCeWu5b-51" value="" style="rounded=1;whiteSpace=wrap;html=1;fontFamily=Verdana;fontSize=14;fontColor=#0000CC;strokeWidth=1;dashed=1;" vertex="1" parent="1">
          <mxGeometry x="940" y="620" width="260" height="290" as="geometry" />
        </mxCell>
        <mxCell id="WTigAZbQ8dtSHyCeWu5b-50" value="" style="rounded=1;whiteSpace=wrap;html=1;fontFamily=Verdana;fontSize=14;fontColor=#0000CC;strokeWidth=1;dashed=1;" vertex="1" parent="1">
          <mxGeometry x="940" y="260" width="260" height="290" as="geometry" />
        </mxCell>
        <mxCell id="WTigAZbQ8dtSHyCeWu5b-24" value="" style="html=1;whiteSpace=wrap;shape=isoCube2;backgroundOutline=1;isoAngle=15;fillColor=#b1ddf0;strokeColor=#10739e;" vertex="1" parent="1">
          <mxGeometry x="585" y="320" width="181" height="420" as="geometry" />
        </mxCell>
        <mxCell id="WTigAZbQ8dtSHyCeWu5b-1" value="" style="sketch=0;aspect=fixed;html=1;points=[];align=center;image;fontSize=12;image=img/lib/mscae/Cache_Redis_Product.svg;" vertex="1" parent="1">
          <mxGeometry x="1173.72" y="80" width="95.23" height="80" as="geometry" />
        </mxCell>
        <mxCell id="WTigAZbQ8dtSHyCeWu5b-2" value="" style="sketch=0;aspect=fixed;html=1;points=[];align=center;image;fontSize=12;image=img/lib/mscae/Docker.svg;" vertex="1" parent="1">
          <mxGeometry x="595" y="100" width="121.95" height="100" as="geometry" />
        </mxCell>
        <mxCell id="WTigAZbQ8dtSHyCeWu5b-3" value="" style="sketch=0;aspect=fixed;pointerEvents=1;shadow=0;dashed=0;html=1;strokeColor=none;labelPosition=center;verticalLabelPosition=bottom;verticalAlign=top;align=center;fillColor=#00188D;shape=mxgraph.azure.server_rack" vertex="1" parent="1">
          <mxGeometry x="965" y="303" width="120" height="120" as="geometry" />
        </mxCell>
        <mxCell id="WTigAZbQ8dtSHyCeWu5b-4" value="" style="sketch=0;aspect=fixed;pointerEvents=1;shadow=0;dashed=0;html=1;strokeColor=none;labelPosition=center;verticalLabelPosition=bottom;verticalAlign=top;align=center;fillColor=#00188D;shape=mxgraph.azure.server_rack" vertex="1" parent="1">
          <mxGeometry x="965" y="661" width="120" height="120" as="geometry" />
        </mxCell>
        <mxCell id="WTigAZbQ8dtSHyCeWu5b-7" value="" style="sketch=0;aspect=fixed;pointerEvents=1;shadow=0;dashed=0;html=1;strokeColor=none;labelPosition=center;verticalLabelPosition=bottom;verticalAlign=top;align=center;fillColor=#00188D;shape=mxgraph.mscae.enterprise.internet" vertex="1" parent="1">
          <mxGeometry x="277.91" y="495.5" width="124.18" height="77" as="geometry" />
        </mxCell>
        <mxCell id="WTigAZbQ8dtSHyCeWu5b-8" value="" style="sketch=0;aspect=fixed;pointerEvents=1;shadow=0;dashed=0;html=1;strokeColor=none;labelPosition=center;verticalLabelPosition=bottom;verticalAlign=top;align=center;fillColor=#00188D;shape=mxgraph.mscae.enterprise.android_phone" vertex="1" parent="1">
          <mxGeometry x="69.80000000000001" y="620" width="48" height="80" as="geometry" />
        </mxCell>
        <mxCell id="WTigAZbQ8dtSHyCeWu5b-9" value="" style="sketch=0;aspect=fixed;pointerEvents=1;shadow=0;dashed=0;html=1;strokeColor=none;labelPosition=center;verticalLabelPosition=bottom;verticalAlign=top;align=center;fillColor=#00188D;shape=mxgraph.mscae.enterprise.application" vertex="1" parent="1">
          <mxGeometry x="39.379999999999995" y="511" width="108.81" height="74" as="geometry" />
        </mxCell>
        <mxCell id="WTigAZbQ8dtSHyCeWu5b-16" value="" style="sketch=0;aspect=fixed;pointerEvents=1;shadow=0;dashed=0;html=1;strokeColor=none;labelPosition=center;verticalLabelPosition=bottom;verticalAlign=top;align=center;fillColor=#00188D;shape=mxgraph.mscae.enterprise.database_server" vertex="1" parent="1">
          <mxGeometry x="1100" y="423" width="73.72" height="97" as="geometry" />
        </mxCell>
        <mxCell id="WTigAZbQ8dtSHyCeWu5b-17" value="" style="sketch=0;aspect=fixed;pointerEvents=1;shadow=0;dashed=0;html=1;strokeColor=none;labelPosition=center;verticalLabelPosition=bottom;verticalAlign=top;align=center;fillColor=#00188D;shape=mxgraph.mscae.enterprise.database_server" vertex="1" parent="1">
          <mxGeometry x="1100" y="781" width="76" height="100" as="geometry" />
        </mxCell>
        <mxCell id="WTigAZbQ8dtSHyCeWu5b-20" value="" style="sketch=0;aspect=fixed;pointerEvents=1;shadow=0;dashed=0;html=1;strokeColor=none;labelPosition=center;verticalLabelPosition=bottom;verticalAlign=top;align=center;fillColor=#00188D;shape=mxgraph.mscae.enterprise.client_application" vertex="1" parent="1">
          <mxGeometry x="37.54" y="390" width="112.5" height="72" as="geometry" />
        </mxCell>
        <mxCell id="WTigAZbQ8dtSHyCeWu5b-21" value="" style="sketch=0;aspect=fixed;html=1;points=[];align=center;image;fontSize=12;image=img/lib/mscae/Application_Gateway.svg;rotation=-90;" vertex="1" parent="1">
          <mxGeometry x="595" y="511" width="70" height="70" as="geometry" />
        </mxCell>
        <mxCell id="WTigAZbQ8dtSHyCeWu5b-22" value="" style="sketch=0;aspect=fixed;html=1;points=[];align=center;image;fontSize=12;image=img/lib/mscae/Route_Filter.svg;direction=south;rotation=-90;" vertex="1" parent="1">
          <mxGeometry x="690" y="508" width="63.84" height="76" as="geometry" />
        </mxCell>
        <mxCell id="WTigAZbQ8dtSHyCeWu5b-25" value="INTERNET&lt;span style=&quot;font-family: monospace; font-size: 0px; font-weight: 400; text-align: start;&quot;&gt;%3CmxGraphModel%3E%3Croot%3E%3CmxCell%20id%3D%220%22%2F%3E%3CmxCell%20id%3D%221%22%20parent%3D%220%22%2F%3E%3CmxCell%20id%3D%222%22%20value%3D%22%22%20style%3D%22sketch%3D0%3Baspect%3Dfixed%3BpointerEvents%3D1%3Bshadow%3D0%3Bdashed%3D0%3Bhtml%3D1%3BstrokeColor%3Dnone%3BlabelPosition%3Dcenter%3BverticalLabelPosition%3Dbottom%3BverticalAlign%3Dtop%3Balign%3Dcenter%3BfillColor%3D%2300188D%3Bshape%3Dmxgraph.mscae.enterprise.database_server%22%20vertex%3D%221%22%20parent%3D%221%22%3E%3CmxGeometry%20x%3D%22730%22%20y%3D%22430%22%20width%3D%2238%22%20height%3D%2250%22%20as%3D%22geometry%22%2F%3E%3C%2FmxCell%3E%3C%2Froot%3E%3C%2FmxGraphModel%3E&lt;/span&gt;" style="text;html=1;fontSize=24;fontStyle=1;verticalAlign=middle;align=center;fontColor=#000000;" vertex="1" parent="1">
          <mxGeometry x="302.09000000000003" y="606" width="100" height="40" as="geometry" />
        </mxCell>
        <mxCell id="WTigAZbQ8dtSHyCeWu5b-26" value="CLIENTS" style="text;html=1;fontSize=24;fontStyle=1;verticalAlign=middle;align=center;fontColor=#000000;" vertex="1" parent="1">
          <mxGeometry x="43.80000000000001" y="730" width="100" height="40" as="geometry" />
        </mxCell>
        <mxCell id="WTigAZbQ8dtSHyCeWu5b-28" value="REVERSE PROXY &lt;br&gt;(NGINX)" style="text;html=1;fontSize=24;fontStyle=1;verticalAlign=middle;align=center;fontColor=#000000;" vertex="1" parent="1">
          <mxGeometry x="497.75000000000006" y="770" width="355.5" height="40" as="geometry" />
        </mxCell>
        <mxCell id="WTigAZbQ8dtSHyCeWu5b-35" value="HTTP REQUEST" style="text;html=1;strokeColor=none;fillColor=none;align=center;verticalAlign=middle;whiteSpace=wrap;rounded=0;fontColor=#000000;strokeWidth=1;fontStyle=1;fontSize=14;fontFamily=Verdana;" vertex="1" parent="1">
          <mxGeometry x="159.99999999999994" y="385" width="109.71" height="40" as="geometry" />
        </mxCell>
        <mxCell id="WTigAZbQ8dtSHyCeWu5b-44" value="" style="shape=singleArrow;whiteSpace=wrap;html=1;rotation=25;fillColor=#ffe6cc;strokeColor=#d79b00;" vertex="1" parent="1">
          <mxGeometry x="160" y="472" width="100" height="17" as="geometry" />
        </mxCell>
        <mxCell id="WTigAZbQ8dtSHyCeWu5b-45" value="" style="shape=singleArrow;whiteSpace=wrap;html=1;rotation=-25;fillColor=#ffe6cc;strokeColor=#d79b00;" vertex="1" parent="1">
          <mxGeometry x="160" y="620" width="100" height="20" as="geometry" />
        </mxCell>
        <mxCell id="WTigAZbQ8dtSHyCeWu5b-46" value="" style="shape=singleArrow;whiteSpace=wrap;html=1;rotation=0;fillColor=#ffe6cc;strokeColor=#d79b00;" vertex="1" parent="1">
          <mxGeometry x="160" y="542.5" width="100" height="20" as="geometry" />
        </mxCell>
        <mxCell id="WTigAZbQ8dtSHyCeWu5b-52" value="USERS MICROSERVICE" style="text;html=1;strokeColor=none;fillColor=none;align=center;verticalAlign=middle;whiteSpace=wrap;rounded=0;dashed=1;fontFamily=Verdana;fontSize=14;fontColor=#000000;fontStyle=1" vertex="1" parent="1">
          <mxGeometry x="965" y="260" width="205" height="30" as="geometry" />
        </mxCell>
        <mxCell id="WTigAZbQ8dtSHyCeWu5b-54" value="SPOTIFY MICROSERVICE" style="text;html=1;strokeColor=none;fillColor=none;align=center;verticalAlign=middle;whiteSpace=wrap;rounded=0;dashed=1;fontFamily=Verdana;fontSize=14;fontColor=#000000;fontStyle=1" vertex="1" parent="1">
          <mxGeometry x="967.5" y="625" width="205" height="30" as="geometry" />
        </mxCell>
        <mxCell id="WTigAZbQ8dtSHyCeWu5b-55" value="MONGODB" style="text;html=1;strokeColor=none;fillColor=none;align=center;verticalAlign=middle;whiteSpace=wrap;rounded=0;dashed=1;fontFamily=Verdana;fontSize=14;fontColor=#000000;" vertex="1" parent="1">
          <mxGeometry x="1020" y="830" width="60" height="30" as="geometry" />
        </mxCell>
        <mxCell id="WTigAZbQ8dtSHyCeWu5b-56" value="MONGODB" style="text;html=1;strokeColor=none;fillColor=none;align=center;verticalAlign=middle;whiteSpace=wrap;rounded=0;dashed=1;fontFamily=Verdana;fontSize=14;fontColor=#000000;" vertex="1" parent="1">
          <mxGeometry x="1025" y="459" width="60" height="30" as="geometry" />
        </mxCell>
        <mxCell id="WTigAZbQ8dtSHyCeWu5b-65" value="" style="group;fontColor=#000000;" vertex="1" connectable="0" parent="1">
          <mxGeometry x="1450" y="290" width="120" height="560" as="geometry" />
        </mxCell>
        <mxCell id="WTigAZbQ8dtSHyCeWu5b-57" value="" style="shape=cylinder3;whiteSpace=wrap;boundedLbl=1;backgroundOutline=1;size=15;fontFamily=Verdana;fontSize=13;fontColor=#000000;strokeWidth=1;labelBorderColor=default;labelPosition=right;verticalLabelPosition=bottom;align=left;verticalAlign=top;" vertex="1" parent="WTigAZbQ8dtSHyCeWu5b-65">
          <mxGeometry y="29.5" width="120" height="467" as="geometry" />
        </mxCell>
        <mxCell id="WTigAZbQ8dtSHyCeWu5b-58" value="&lt;b&gt;&lt;font style=&quot;font-size: 29px;&quot;&gt;EVENT BUS&lt;/font&gt;&lt;/b&gt;" style="text;html=1;strokeColor=none;fillColor=none;align=center;verticalAlign=middle;whiteSpace=wrap;rounded=0;labelBorderColor=none;fontFamily=Verdana;fontSize=17;fontColor=#000000;rotation=90;" vertex="1" parent="WTigAZbQ8dtSHyCeWu5b-65">
          <mxGeometry x="-90" y="250" width="355" height="40" as="geometry" />
        </mxCell>
        <mxCell id="WTigAZbQ8dtSHyCeWu5b-60" value="Publish/Susbcribe Channel" style="text;html=1;strokeColor=none;fillColor=none;align=center;verticalAlign=middle;whiteSpace=wrap;rounded=0;labelBorderColor=none;fontFamily=Helvetica;fontSize=29;fontColor=#0000CC;rotation=90;fontStyle=1" vertex="1" parent="WTigAZbQ8dtSHyCeWu5b-65">
          <mxGeometry x="-240" y="255" width="540" height="30" as="geometry" />
        </mxCell>
        <mxCell id="WTigAZbQ8dtSHyCeWu5b-99" value="MESSAGE BROKER" style="text;html=1;fontSize=24;fontStyle=1;verticalAlign=middle;align=center;fontColor=#000000;" vertex="1" parent="WTigAZbQ8dtSHyCeWu5b-65">
          <mxGeometry y="520" width="100" height="40" as="geometry" />
        </mxCell>
        <mxCell id="WTigAZbQ8dtSHyCeWu5b-67" value="" style="shape=singleArrow;whiteSpace=wrap;html=1;rotation=0;fillColor=#ffe6cc;strokeColor=#d79b00;" vertex="1" parent="1">
          <mxGeometry x="790" y="389" width="100" height="20" as="geometry" />
        </mxCell>
        <mxCell id="WTigAZbQ8dtSHyCeWu5b-68" value="" style="shape=singleArrow;whiteSpace=wrap;html=1;rotation=0;fillColor=#ffe6cc;strokeColor=#d79b00;" vertex="1" parent="1">
          <mxGeometry x="790" y="669" width="100" height="20" as="geometry" />
        </mxCell>
        <mxCell id="WTigAZbQ8dtSHyCeWu5b-71" value="/users" style="text;html=1;strokeColor=none;fillColor=none;align=center;verticalAlign=middle;whiteSpace=wrap;rounded=0;labelBorderColor=none;fontFamily=Helvetica;fontSize=29;fontColor=#000000;fontStyle=1" vertex="1" parent="1">
          <mxGeometry x="811" y="339" width="60" height="30" as="geometry" />
        </mxCell>
        <mxCell id="WTigAZbQ8dtSHyCeWu5b-72" value="/spotify" style="text;html=1;strokeColor=none;fillColor=none;align=center;verticalAlign=middle;whiteSpace=wrap;rounded=0;labelBorderColor=none;fontFamily=Helvetica;fontSize=29;fontColor=#000000;fontStyle=1" vertex="1" parent="1">
          <mxGeometry x="811" y="619" width="60" height="30" as="geometry" />
        </mxCell>
        <mxCell id="WTigAZbQ8dtSHyCeWu5b-73" value="" style="shape=singleArrow;whiteSpace=wrap;html=1;rotation=0;fillColor=#ffe6cc;strokeColor=#d79b00;" vertex="1" parent="1">
          <mxGeometry x="422" y="542.5" width="100" height="20" as="geometry" />
        </mxCell>
        <mxCell id="WTigAZbQ8dtSHyCeWu5b-74" value="http://mydomain:80" style="text;html=1;strokeColor=none;fillColor=none;align=center;verticalAlign=middle;whiteSpace=wrap;rounded=0;fontColor=#000000;strokeWidth=1;fontStyle=1;fontSize=16;fontFamily=Verdana;" vertex="1" parent="1">
          <mxGeometry x="429.99999999999994" y="480" width="109.71" height="40" as="geometry" />
        </mxCell>
        <mxCell id="WTigAZbQ8dtSHyCeWu5b-76" value="" style="sketch=0;aspect=fixed;pointerEvents=1;shadow=0;dashed=0;html=1;strokeColor=none;labelPosition=center;verticalLabelPosition=bottom;verticalAlign=top;align=center;fillColor=#00188D;shape=mxgraph.mscae.enterprise.key_permissions;labelBorderColor=none;fontFamily=Helvetica;fontSize=16;fontColor=#0000CC;" vertex="1" parent="1">
          <mxGeometry x="1122" y="121" width="26" height="50" as="geometry" />
        </mxCell>
        <mxCell id="WTigAZbQ8dtSHyCeWu5b-84" value="" style="endArrow=classic;html=1;rounded=0;fontFamily=Helvetica;fontSize=16;fontColor=#0000CC;fillColor=#0050ef;strokeColor=#001DBC;" edge="1" parent="1">
          <mxGeometry relative="1" as="geometry">
            <mxPoint x="1210" y="362.47" as="sourcePoint" />
            <mxPoint x="1440" y="362.47" as="targetPoint" />
          </mxGeometry>
        </mxCell>
        <mxCell id="WTigAZbQ8dtSHyCeWu5b-85" value="Publish Event" style="edgeLabel;resizable=0;html=1;align=center;verticalAlign=middle;labelBorderColor=none;fontFamily=Helvetica;fontSize=18;fontColor=#000000;strokeWidth=1;fontStyle=1" connectable="0" vertex="1" parent="WTigAZbQ8dtSHyCeWu5b-84">
          <mxGeometry relative="1" as="geometry" />
        </mxCell>
        <mxCell id="WTigAZbQ8dtSHyCeWu5b-86" value="" style="endArrow=classic;html=1;rounded=0;fontFamily=Helvetica;fontSize=16;fontColor=#0000CC;fillColor=#0050ef;strokeColor=#001DBC;" edge="1" parent="1">
          <mxGeometry relative="1" as="geometry">
            <mxPoint x="1440" y="404.47" as="sourcePoint" />
            <mxPoint x="1210" y="404" as="targetPoint" />
          </mxGeometry>
        </mxCell>
        <mxCell id="WTigAZbQ8dtSHyCeWu5b-87" value="Susbcribe Event" style="edgeLabel;resizable=0;html=1;align=center;verticalAlign=middle;labelBorderColor=none;fontFamily=Helvetica;fontSize=18;fontColor=#000000;strokeWidth=1;fontStyle=1" connectable="0" vertex="1" parent="WTigAZbQ8dtSHyCeWu5b-86">
          <mxGeometry relative="1" as="geometry" />
        </mxCell>
        <mxCell id="WTigAZbQ8dtSHyCeWu5b-90" value="" style="endArrow=classic;html=1;rounded=0;fontFamily=Helvetica;fontSize=16;fontColor=#0000CC;fillColor=#0050ef;strokeColor=#001DBC;" edge="1" parent="1">
          <mxGeometry relative="1" as="geometry">
            <mxPoint x="1210" y="696.9300000000001" as="sourcePoint" />
            <mxPoint x="1440" y="696.9300000000001" as="targetPoint" />
          </mxGeometry>
        </mxCell>
        <mxCell id="WTigAZbQ8dtSHyCeWu5b-91" value="Publish Event" style="edgeLabel;resizable=0;html=1;align=center;verticalAlign=middle;labelBorderColor=none;fontFamily=Helvetica;fontSize=18;fontColor=#000000;strokeWidth=1;fontStyle=1" connectable="0" vertex="1" parent="WTigAZbQ8dtSHyCeWu5b-90">
          <mxGeometry relative="1" as="geometry" />
        </mxCell>
        <mxCell id="WTigAZbQ8dtSHyCeWu5b-92" value="" style="endArrow=classic;html=1;rounded=0;fontFamily=Helvetica;fontSize=16;fontColor=#0000CC;fillColor=#0050ef;strokeColor=#001DBC;" edge="1" parent="1">
          <mxGeometry relative="1" as="geometry">
            <mxPoint x="1440" y="738.9300000000001" as="sourcePoint" />
            <mxPoint x="1210" y="738.46" as="targetPoint" />
          </mxGeometry>
        </mxCell>
        <mxCell id="WTigAZbQ8dtSHyCeWu5b-93" value="Susbcribe Event" style="edgeLabel;resizable=0;html=1;align=center;verticalAlign=middle;labelBorderColor=none;fontFamily=Helvetica;fontSize=18;fontColor=#000000;strokeWidth=1;fontStyle=1" connectable="0" vertex="1" parent="WTigAZbQ8dtSHyCeWu5b-92">
          <mxGeometry relative="1" as="geometry" />
        </mxCell>
        <mxCell id="WTigAZbQ8dtSHyCeWu5b-98" value="" style="shape=image;verticalLabelPosition=bottom;labelBackgroundColor=default;verticalAlign=top;aspect=fixed;imageAspect=0;image=data:image/png,iVBORw0KGgoAAAANSUhEUgAAAgAAAAEACAYAAADFkM5nAAA97klEQVR42u3dd5wdVd0/8M+Z29v29N5I2RQIAQRDCQiIgIpAkKZIS5SOoKKoyw9sCCIgVaoPgpTQu0BCAoH0ummbvimbTbbdXuf8/giRkDtz95aZvXvD5/168Xp8Zu6cOTO5e+c7p3wPQERERERERERERERERERERERERERERERERERERERERERERERERERERERERERERERERERERERERERERERERERERERERERERERERERERERERERERERERERERERERERERERERERERERERERERERERERERERERERERERERERERERERERERERERERERERERERERERERERERERERERERERERERERERERERERERERERERERERERERERERERERERERERERET5EEYXKK+EDRKnQcE3IFGdZzFRCKxHCq+Ix7CtK26EvBLDIPA9qBgMAUc+RQBoBvAJ+uIDUQe1K+pNRESUD0MDAHklJgL4D4ARBhUZh8Qf8E/cLvY+YA0n62DFDvwVwDUALAYVuwQC54lH0GBGnYmIiAplWAAgr8QoAJ8DKDehnn8Qj+JWM26AvBKPA7jUhKJ3IolJ4gnsMKPeREREhVAMK0niPpjz8AeAX8lpGGN0ofIKHA9zHv4A0AcW/MmksomIiApiSAAgL0VfCHzLxHpaIHGh4aUK/MjEOgMCU+WVcJt6DiIiojwY0wKgYBRMGFD4FRK1JpQ62tQ6A04oGGryOYiIiHJmTAAguuAtV8BlQqnm11uFx/RzEBER5ci4MQBERERUMkonABDmTAMkIiL6OiqdAICIiIgMUzoBgGQLABERkVFKJwAwKRMgERHR11EpBQBERERkkNIJANgFQEREZJjSCQCIiIjIMKUTAHAaIBERkWFKJwAgIiIiw5ROAMAWACIiIsOUTgDAQYBERESGKZ0AgIiIiAxTSgEAWwCIiIgMUkoBABERERmkdAIAjgEgIiIyTOkEAJwFQEREZJjSCQCIiIjIMKUTALAFgIiIyDClEwAQERGRYUonAOAgQCIiIsOUTgDAPABERESGKaUAgIiIiAxSOgEAuwCIiIgMUzoBABERERmmdAIATgMkIiIyTOkEAERERGSY0gkA2AJARERkmNIJADgIkIiIyDClEwAQERGRYUopAGALABERkUFKKQAgIiIig5ROAMAxAERERIYpnQCAswCIiIgMUzoBABERERnGWuwKZI0tAERE1A09OXOm0x4KuYb37TGwLRhr/vZxx+0sdp2yUToBABERUZHV1dUpp5/93QsTieT54Ujk8FgsWhmJ+m2wAI27mgAAM959HU6HI+ZyuLa7HM7PFCH/etTEo5YVu+4HKp0AgIMADwryxZ8/IDfNP1eqKbsQkJBSlcIqhcOdhJpKQrF8+Z2MBqywO1UoNlUmEwkAEDZHXLV7WyxOz3bYndvg8DbA7vpQfPf2+mJfW1Hu56aZTsx57m25Z/1YmUpahLd6u+hxyPninL90u/sh3/nzZNkw60l0NPUCREqtGrjKgo5TxVWzgsWu21fqKaXAC9c/KzfOO1nGAk6hSlUCcdQM2awc9cPLxFEXd7sf8kwaGhocbeHA2+FI6LB4IuGwWm3JLy40ZbVaY3abbavH5b573KjaF4pdV91r2NxwdEt7x/3RWHSQqkq7ooi4RSgpoShhq8UScDnt748fNf5XQoiUWXVYWr+0NhSL3tPe3nHClm2NtkyflVIiEo06ItHoUABDAVz43uwP28t83geXp5bWTZs0LVHsewqUUgDAPAAlTy558Rj52I9+hlQCYr/tIotj9/+MAgyVwBH771dvGZSUPUbsUGoGvg2rr05ccO+uYl9vl1jxYZ2c+8SU/e5RlRz9recAjC921Q4k13/yElZ90Gvf/69sX3EMxp/5VwA/LXbdvuLlX/5Bznzgh8CX3zsBAM3rqqW/aTaA8mJXMRfBRPT2rTsaT8zwkd4Anp+/fOF3jxw/6aJi1/dADVsaahs2bZoTjkQsGT42PhiKngZgrNHnX7B8+dBYLPzMxm2NR6uqmnc5gVCwIhAK/rq/c/DPP1uy4HdHH3bEnV1w+zIqnUGAwpS6ls71HwyaNx2HlEmBb9t2q1g3a6Cc+6/p8vMnmtR7Tt4gX7jh28W+ZNO175qYtq1jx8BiV0tT69bqAzfJeKj7BSprZ56tu3P7irJi1y9XiXjs0Gw+t23nzguXras/qtj1PVBbu/+BTh7+AIBdLc21DQ0Nhv77LFi24M6dzdsamvbsKujhv79INOrY3rTjLx98Omvz58s+72/SbctK6TwAVfQzsjhZBysA838oBQabfo5SkYj07JLzxCPA2plD5awH30ndc/Ja+cLPhhf70k2jJp3p1x/tni17iXD6741W/YtMRvwZHiLGPAS6UlJVs7rHqqoi6A/cV+z67k9KKfa0tX4z2/qHkrGjjTjvkiVLKj6e98mGLTt23BxPJEx5Trb7OwbtaenYOH/poh+YUX42SicAEJgsp+Mww8rbiUvRNU1553XBOUqDlF37fVNTEGtnHqIueG2NfGba9GJfvhmkqqb3oIhsOlW6B9kdO/YSsdL5XTRYm79jopSy23yB6hvW/CAcCWcd0ArAW+g5VzSsGNYSbt+8u7VlqNnXF41FbTuad770+ZKFPzP7XFpK6YtuhYrn5PTC+3jkNPwAEnd1Sa0lzpLTcKs8F502YZE5RGCXRc596iH5+IVF73P7eus2z5VOainjujslIEvlQr5gESLrMCsai1qXrVp5YbHrvE8oHMxpfIiaShUUANTX1w/csbN5Zbvf3+nLoRACNZXVGDpwECaMHocjJxyOI8dPxGFjxmP0sBGoqaqGRen8EZtMpcSO5p0PzFu24DLTb+gBumdTob6RULFQTsPbADZAReYRnwICQMV+WxQA4yDRtf1cErejEpfIKzEPQLca8XyADgBL4cEr4h5EuuysFhswfQYw5Mj0fYkIkIgByTgQDwGhNqB9O2TLFojmtcDGeUDr1s7PoaYgF824WT55UUj85Jnbuu6WmksoSrd8ic5B96u+QFR/n4DojnXOQOb4DQlFQ1cBeKbY9QaAQDD4jRwP8eR7roUbNpTvbGpcFggFM3aZOB1ODBkwCIP79YfL6dL93Gjs7ZbY2bwLGxo3Y09ri+5nVVVFU3PzowuWLNhwxGFHzDLlZmootQAAAByQOAtAicXhGPbFf91fCI3ySpwrHsW8Ljlf/wlA7ak6Oys1t37ln751C7BoBjDvGWBHhtlvahJyyeu/l0/85L/i0ifndsm1FUGpRwTFJqy21RLQHDciXZUAmg09n6yrU0RdXbcZXNAR8E8svJTCrdmwYVJ9Q73mA91qscpkKpn2BFAhHPmeL9raPKfd31Ght18IgWEDB2PM8JGwWrN7dCqKgn69+6Bf7z7Y2bwLy9asRDii/W6VSCaV3f6Otz/55JNekydPDph8e/fWrytOQiVnAIB35PQuGsBodxd2fNUg4OQbgd8sAi5/FqgZov/ZeFjIbYvfPFi6ZLTe7kR3zZqpMTZBKEr3q2tz488B7WZz5ajzXzXqNLL+Bbt87qp/SPFyh5mXI3LoAgCAcCRiX7p6xRlm1ikboXDHz7W+3y6nM9mnR8/ZRp5rcf3S3zXtaR6nt99us+O4I4/G+FG1WT/8D9SnZy+cePSx6FldrfuZcDjkUu3KB0ZeWyYMAEhPJSR+3TWnMugZIAQw8Wzg1/OBw76v/7kd9ZX41tl/6pprK4ISGgSIbticLh6JNQghj5fAPRLyKUC8CIgXBcR14rx7zzLkot+oO0d9vs4vP37kKuzeUPDAtXxUVVTu0dsXi0WuLkad9ucPBr+ltb3cV16vGtjMtXr16uodu3b9Tm+/0+HEcUcejeqKqoLPZbfZcczEo9C7Rw/dzzS37D5y/opFUw27wAxKsQuAuorEKV1zHoOfAc4y4PLngMcvAhbP0D7lthU/lcAvS60/l7qGeCg5B8Ccvf+fscnl5Ku/vUB+eP8zItohAPO/gHoPywpf2WNSldPa/O1p/Wz+YOgYk6uV0ZqtW/uuXr2sRmuf1+1+OhKNfs+oc7VHgy9GY1HNFkGr1Ypjj/gGfB7jYjRFUXDUhEmYNe9TdAT8mp/p6Ag8BMD0zIxsAaBMehVeRDZM+AkUCnDJk0CfMdr7d2/04uFzL+2a6+tqpdQCkFvzdKmTM2da5dIZT+CLhz8AiCLegzKfR7O52R8M+JavXj0u1/KMEg2235TSSLxjt9lkucv3kGJQK9eqDatG7NrdfILe/gmjxhr68N/HYrHgyPGHwWLR7onsCHRULVy++EbDT3wABgCUSdc8ScwatWZ1AOffr3/aaMdBGQDkOuq765RSYGKStvcuR9O6rw5UM7nLJtM4C7fDpTkdWkqJWDx0UzFuEQD4g0HNrpaKsvKNQ4YM0Z2lIYSa080MBEIPaQ0mBIABffpiUD/zEvX5vD4cMlg/1UBHMHCzaSf/AgMAKj4zH1jDJwNDdGZ9Nq3uFqOdjZbroK+uI7PeeNAK7knPVCeK9zNcO7J2fpnXF9LaFwiFTs21PCM0Nja6OgIdg7T2ed2eF4EvFmzSlH0AsKxpmae5Zc8UrX1CCIwZPtL0ax0xZDjsNrvmvraO9t4LViw5wczzMwCgbsDkZ8DRl2hvb9/plL8Y0LfYV1+YUnqrFlltOsilL4ZR5EGbZV7vZ1rb2wP+XitWrOiibsAvtQb9V8Xi8bSbYrFY4HN4/gZA955Jac16OmVqj/htLB7XfAb2790HHnfeKQWyZrVYMLi/fitDIh67xczzMwCg4jO7yXrk8fr7hkw6rtiXbzilmz5VS2t2gjkUy4b0jSZ3AXQSYbtcHs1+MlVVkRCJ67vu5uwVDAc1VySsLC/fOWLEiN0Zr1Uks36m+UMdP9LbN2Jw16VsGTJgMITO30Z7IHCsmedmAEDFJ03OgdJjGODVnXaTa6axbiY9epJqd21V16hXd81ZYBarIz0dXJEDowmjal93u92a6Y+D4ejZuZZXCCml6Aj4a7X2ed3et4w6T/2m+t5t7e19tPb5PF5UlHXdis8elxu9a7R/n8KRsGvRskUn5lhk1hgAUPF1xaC1Sp3FJJPxAcW+fKN13zEABCk10swWv2Wkwlu2RGt7u799WH19vT3X8vK1av3ac7QW/xFCwO12/G8tD7XABYui4eSNKZ3lffv17pNjaYXr3aO37r6YmrrBrPMyAKBuoAueV17t7FtSSluxr/7rQmo96OTXLFhJxdM7lrNYMMZsLrfnca3t8URCiYvk5V1Vj0BIe/Gfcm9Z+5hhYxqMOk84HNbNI9C3Z+9cijJErxr9xECRcNi0tWuK/80j6ooWAN1uBrXL3m66TDfta9fsi/7atVaoBea9Nkd70+4n7Ta75h9JOBK+pKvq4Q/6NR92ZT7fR0aeJxAMaM6/c9gdXdr8v4/b5dLNN+APBWvmzp3ryrHIrDAAoOIzewwAAARbNTcLYQnlWFL3UsQpZMb4uj3/kz3TtsVDQhbYpJ1JNnkhpkyZkqyqqFyjta8jEJjQFbdm3aZ1R/kDAc0Aye503mPUeVavX31MOBrRzILbo6rwdL/56lmjmfgQqVRKWL2u88w4J1MB08FPqkDLFu19Vus6w06z/M1KbPz8AkTaxstwYBjiwX6Qcm8LQzRgk4o1Jl3lzRanZzvcVe+gxvucmFIXLfC0Gjp/q5ZSWvH2Hdekmtadp4Tb+slQa7mwOWKwu/2irNdKVA95XJzx29eNr9uBFel8MSD51h2D0LFtOsLtE2Q01B9StUJKCaujSbh8KyAtL5TC6o6yrk6Ru2enL7KTjAOv3vpDAM+Zcd5sx4R43I5nAdxx4PZwJGJfvmr5d8aPGf+2mffHHwxoZr7zebyRQ0fWfrL/NkWn20Rk0fwViUUv0ttXXVHd2eGm6VHZAxu2bNbcl0zGvw/gKaPPyQCAis/sLoAdq4BIu/Y+VV1eUNU/fWoYNn/+d3XHqsny8QsrENNvUBB7/xv+xdWeC7vn8dQ9p2xQeo38nbjgflN+/NPqu2mTE/Pve0beOuL7aNls2fcz+sWvpg9AjQSGAviu+uthCTH8m++hvP+V4uw/7iz87Fq/zfqtP/KVX/5Cbpx3k3z7Dz2QSmh9ZIwETgRwXeo3IyLKgPGvIx6+Ulz7jh8GkP+edrds3XYqYiGPtLn8Ss2Q68WFD87s9LgP/jQU29bfLeOhgVJN2kQiYpWATba82B8NazXXmpdzHv136sGzbhOKpRVSSlhsdogvnnKpuAWJvW+sEoBwVXSIQeNvECf/8nMjrnMfu7Tfa7Pabk8kE2n/UOFY7GoApgYAgVDkJK3t5T6vodcZjSWO0NtXVVlh5iVmVObTTzmcSCTH5FBU1hgA0MFvtc7qmooF2L32v/kUKec9fYhc8e4M+dKNYxHx5zeOOx4SYu1Hw+Xaj55V755yh+g96mRx4UMbC75evSQpH9xzofrvcx8T25Y6syqndYtNzt9yBnw9tsl/Xf6k+NFjxg8G03g7lf+9+xty5buvyffu7pl1MS2bXLJl03nSU3OO/OcP7xBX/KeukGrJt+84T75e9783UgFA9p/wIoCaTo9d/uFHWDdr0L7j9v+/usJtQix/Y0Sn17nvHB07XwVg6Gi12tra4Ox5n25tbt2TloUvGApMNvJcB2rY1tB/Zf0azddvl9PzwIHbCukyiUQimpP8hRAo8/jMvMyMPC43LIoCrdkJkWjElIRlpd6BSAcFk1sA5j6pvb1mWJuoW7cnt8IA+UbdH+Wrdaux8MWxiBjysgk0zBkql766Tv7f5SfnVpnsmk/km3V3qG/e8UzWD//9BXYrcu5Tl6X+evx2OeN6U+dIyTfqbpTv3/0p1s7M+uG/PxHaY5GLXvq9+rcpC2RdAS84gT3fTNvWsTO70WGtW8wfRu5vynqkWi5/XR6P+xWt7R3BoK++ob42h6JyEuoI3az14HO73IkJo8fOyL6kzh9pkVi0TPPaXW7dxXm6ghACXp2BgOFoxPPIwkcMn7HEAIAObivfBZrWaO+rGTA/1+Lkq795Rr7zp1vQ1mj8305gt0UufeMd+filhr5tyZd/9U/57p2/EdGOgsoRGz7tK1f8d7184br8kqRr9dvulwhIvnrLH+T7d92NQHPh93bdnEnSPXlF3kGATKb/EussGpN+TZ2PayiYkn3K21y4FMedWv3rUkpEIlHTFgcK6EzLq/CVaXbRiTxnujQ1NXli8ZjmU77Ma/yqf7ny6dRBVVUcaj9iktHnYxcAFZ9ZYwCSMeCln2vvEwqEcNyaUzXf+P398t07L4TayfrwvUf60XP4IuGumgNFWQkpk7C5+yMWOFa2bD4Om+b30unTBkItFrVx/puyDjWiDsl87+j//sfbf/yFfOdPlyOpkehNCKDfeGDENwGbG0iEgQ2fAY3L9GdmNK11S6EslC9cM1RMvT9jWtbsarr3YSnfuO06+f5dv0ZCZ0ykzbU3pXPfsYDDC7Q1Aus+BprX65e98fNRcuRJHwEfGpPuOduHTvXgbdi9Ybgh59RT1qsl248qOUy1HDNmzM6P5s7e3drRljYxPRAOf9uMS2lqavLMX7lkoNY+l8v1ZK7lZdIebD9Ur9HM7Sr+DE1PhjookOMBfJZ9aZ1jAEDdgEkBwCu/0n1AyP7jtyrXvL4w6xoufGGcfOHGq3Qf3EIAQ47aIKoHXiEue3YmUK/1qfsBQL5Vd5y67tPnxNqZmv16omlNOcaf9Tjwyo8LuXz54X1nyrf/+GckIul1nTQVOKMO6KExHXrXur33brlO5tWdq73S1+sTAIUvlyaElB/fd5h85+6/pdUTABwe4OSbgJOu2/u/D7TyXeDlX+q38qybfax85JxfiGkv3YlCZRkAiL6jz5XA0xJwCItVlWoyrjjL9shIR2+sm10LVSOuq+iTlD1HNgghYv/bZrHa/jcQ8AsyGbfA5gwqPUZdC2Q3fCXXrHk+j+fd1o62iw/c3u7v6L24oaHHxE7y8eequb356ngiffEfu82u2qXln1rHSDW3ZX/3iaWSulManY7ce8eMZrPqt/KnUuooo8/HAIAOTrP/Ccx8UHufUKBUD/w5kPXzH+rSV18V/ibtHx2rQ4px3/mlmPbiX7MpS5xeNxtAP/nvn86Qnz7xA60WBbl5wQ9lHS7rtBVAc+EfAVk/0ytf/+XzCO356gdcFcAVzwGjMqQX73UIMP1l4KN/ADNu1m4NWDfrEPnUj28Tlzz9+6xvonb9rXLe87PQvj293bn/eGD6DKBqoP7xY7+9t2XgiYuBZW+k75cSsmHuHbLuqIdF3bwCB2xkGQBM/ftSAJoPGvXhH3yIpa+n3Xxx+IWnK+f++f3s6/JG1p8UOTaxeTyuO4UQFx/4ppxKpSDjwesB/CbPG6jJHwpfoLW9srxifW1tbTzX8jJJJZO6D9HuHgBImRqaQ1FZ4RgAKj6juwDe+yvw/DX6+4cdM09Mf/mlrKu3+oNDxMp3tP/4hIAYc8o12T78v3LohQ+dLSZfrj3X3t9kR+9zbs73FsjF/3kLWxZ/NXtY1SDg5tmZH/77O/Fq4MKHdXera2bdIh85M4d2U40H6MYFx2DjvPRBWaNOBG78MPPDfx+bC7jiP8BEnXVrgs02WVX1TL738n/3tNACAIjyPq+lb1SAmlMNzXRXiDHDx6ws95VpBkvhUPQcI88lpRQdHR2agws9HtfzesfpjQFQO2kZSKWSug9Rp8Nh5KXlxW7L1AKAHjkUlRUGAHTw6NgBPHY+8Nqt+kFFeZ+YsKfOzKnc1e/fhmhAe9+Ib84TP3vlgZzK29/5//g+Rp2k2aSqBvdMzavMUKsP8//91X5vTzVw9RtA7xxb7Y/5MXC09qqpon27DZayv2VfmMa/Sbg1/Qd7yFF73/ydZVmU+QXFClz0CNBTZybdxnmny7rhORSocb1GpC0WVu18Ciec0AXpMLNX5vXO1tre5m8fvnDhQsNGo9evW31eJBZNG5RntVilcJXn8N3KTjKpVurtsxZxBsA+tgwBgArVk0NRWWEAQMVXaAuAfxfw1h+A2yYAi1/W/5y7MiWGffNEce2cnPow1a3Lv6O5Q7FCJNWLcynrQEIIKcaf/hNY0v/wRfP60fndjybLVwbTCQFc+n+5P/z3mfr3va0HGuSWRRflVlgnynoDP30ZsOcxIMvp23udisYPedSvoOfYPxta1/xoDHSQQHdYEnA/PrfnLq3t8URcsboclxl1nkA4NF1re2V5xfbDhgxp1ztOb1yDomSegSGl1H3Nt1mL3yOuZBhnkkomDR+lyACgayUBPAEFU5BCtXgUItv/EIcLEiMhcT2AxmJfiKHymdLjbwLmPwv88zzg1hHAW/8PiGbo4nVXpcQhJ04VV/4np5Sxckf9QLHpc803Rzlw4lrxi9kFr1AmTrz2LRxyQnpQ4m9yyJt65TUf/iuOnw6MPin/4x0e4PTfau/bvd4jn7r0lOwuNIt/53P+Cng7zbWjb+BhwJHna+6S21deLAt50BqxyJKi0YogzQ0ARB7TEkePGP2xz+PVnJIRjhq3OFAwFDhSa7vH7c5+kMN+OusCAKD7im3tBgFApn8oVVUNXxCo+Ff89bETwFniUczL52DxFKIA1gFYJ2/AowjhCQA/LPZFGWLXOuDD+4C+Y766uE0yBkQDe/8LtwHB5r2j+retBFq3ZF9+71Htou/IyeLK5+uzP+gL7n4BWB0SseBXf1hqhviViqrcuhIyEAPGvylX//cnaTsGf+ObwGuv6B7YWSIgTzVwRmHj9AAAR50PvPF7oH17ehXCe34JIIcBbDoGHLp3dkKhTv45MO/f6S1LLZu9eOTsH2HajKfzKtfMVRZXrep2L2PlvrL5gVAwbQple6DjMCPKX93QcHT9+lVpDzVFKLDZXBnH1OiNAVA6acWX+9bmyKHMrpTpz1lKGN5HwQCga4QhcJp4BMuMKEzcg4g8FxehEuUATiv2xRUsldg72txg0tszpYw49lmEtk4TV86I5FOGqKhok2/c/u3UtmW/F+HW3sLh2Sastnex+OW7xB0NiXzK1NRv/PMA0gMAi3VwQeWedD3griyoCAB7+9i/ecnerpYDNa74ZjZFyM5ev4+dVng9AaDPGGDYMcD6T9PrEG6/CkB+AYARVJ3FD+x2E58++Q0vcDldDwNICwDCkYh96eqVpx46eux7hdQqGAlqLv5TUV7WMmHUqE2ZjtVLBayqmb9iqlR1WwC6ewBgBgYAXeNuox7++4gXkZJXYjqAtQCKP3+lO6kamBDDj31J2Mumi4vuLzhXrzjzt+/DiDfcTI684BP851ogckC2PiE7WZ80w4ujzQlMvtS4Oo47UzsAaGt0yKd+fJK45OkPMx2ecRCdqxw4wsAVT8eerhkAYPvqQ+Xed/k8fmlNzPDn3N3tWgDGj6p9flvT9n9FotG050QsHrkWQEEBQCAU1JyO4vV4P+zs2HwHZEoJw9PpGilTAKAoBgxCPbDMYl/w14CEikfNKFg8iq0QeKfYF9htWJ1SHHXhA+LkH7nFpU9fYMTDv6sIIULS1zP9VU2m8g/SR3+rsP70Aw04dO8gPS3xWEFJi3Dk+dqJfvJVe6r29mCzDQ9874zcCtvHgDdEoZNicVdL8V8/D6yqEGqFr2Kl1j5/MFRQuupVGzcOave3awa3bofjrs6OL2AxIN00nqratW/fuTKjegwAzNcoHsM200qXxqaGLGnJqJBLX/+ZXP75XPnkBYcWuzq5Ei5fepeCVPJ/MNQa3DskBFCrPd5Ptu84tqCyDz3L2Lr2GwtU9teuqxqfnmNpX1y/sVX8ClekW/4We9yOf2lt9wf8ZUvr818cKBb236xqLP5T7vWFxo4cu6Cz45U8m+stihLT25dM5Zt5u2tYFcW4LscvdMsv3UEm59XmctRc7AvsVmIBgdUfHCGXvr1YPnrOQwWN+u5i0uY29g987KmFl3Gg4Tpp9ZtWD8j7XrsqgOFZDSPIzSHHa2/37z40r/KM+CZJnW6EQNy832KZf9Oxx+Z50G6zpS/ZLCUSqejP8ykTAPyh4He1tpf5yj7N5vh8UwFj/1TLB+geAYD+ZSkWJa9xTJlwDID5zE3wISDNXk23S/Qa4Vd7jlirKLYUpBQyFnQLxSKgJpOq1ZkUUK1CTbqRiHvRsbMaLZsdmjnV94kFhVz86nR515Qj5E0zj8ivz7drCZvTuLSnvUcClQOMr2TvQ7S3h9ssePis8Zj+SoaxLjo/brWnQCsPQsF66WR9bdmS19TKApag71wk0S1fxkaMGBGbvWDuhuY9u9MWNwrluThQfXO9d8PyLZrNM26H434zr8cihO5DNJlM5VKUKTI3bIiw0edjAEDF56pICX+gt/W217OOcOXMeyqwe9NN6o61PxbrPu6vFwyI9XMOl/d861Pc8MExxb7MTq9J6xVaUfN7MPQ1ael2vUx7AODwnQTkMdh1ZJapiXOll/go3GaVf5o4XNyyeH0uxQkjBmHpJapxpLplAAAAXrfrxWbglgO3t/nb+9TX11fV1ta25lJeskW9Jp5IpH3V3W53fNzocW8WUleBzFGaUPTfolOp4gcAmVgsSsjoMrvtl46+Rsp7dYh7tuXUvCWm3NAupt53q+X69waI0269SPY/VD86XjvraPnIeYYuYNJ96Awb7m34wmF7eaoAr05K8ljkyNwK+8KAQ82pa69D9PdVDzs99wINaAGQOkO5LLZu21XlUpx3Wy3pj4pUSkVMJm7ItbxgWHvxn3KPb6nZ16Io+m/RyWTxuwAy1cGiKDkFWlndj2JfMJEUloJCb3Hmrf9WTvzFAIw6SXc8hFw78zb5yJkGDok3+B5IaRMdOzQyDnbyJ6rXZtir8JV6dfXQXk9FRjoyRx1adbXazWut6DFMPzOMqo7IrTAYMwZA1WlFiHXfFoDRo0e3VJZV7tDaF4qEz82lLCmlaPe3a6a49nm8j2VdkM73XiJzK42iKLppwJPdoAUgntAfBmRRlB05FJWVbvulo68PI/JviGOmtoqTfzUMgw7XjvDDrRYkxSPFvtZ9pJR2+dHdE+Qbd1woZ9z4Z/nQWRuwc1V6l5ya52OnerB5lXeXa2+Ph3PPONRnzN4gwAxW+94BhlqS0f45lQUUNJjuyzJ0WgDs5gUAQil8/IvX69Fsmm/r6Bgxc+bMrLuSV65ddWEkmr74j8NuV1uadj+Z9TXpbs/8a2JVlO16+zI9fLtKIkMLgKIIw2eTcQwAFZ80ZqS+qJ0SlB/de67c1fCW1roAcuPn35PXDHeI+9fH8ig+t0ua+4IL/o0nomPHcQh3HKb6dw9D1F8pIm0uhDvs8mq3glQWPzj5piczcv7/gRxe7e2JcO4T+Sv7mVdPAHB6gVBL2maZiPXOuSwjIlWLzhiASLzbdgEAgN1hvVMRypXqAWkM4om4Utmv36VAdrlOwpHwFVrbK8or1h476WjT2+CFsG7V2xdPRHMpyhTJDL8JimLblENRWWEAQMUnjZsoIU687m31yR+vwLx/j0vbGWq14LATrgbW3234JUip4O07fpzaueYyZfeGcfK5S8v2X5Gvy3/dPVWFl6FHL2FPLJQxI6XmIEdf4WsdZeT0aW9PxCpyLsuIAEAv20ysewcA40aM2/Dhp7Pa2vwdaa08kUjkJ8gyAOgIBo7Q2u51OZ/PpT75NmnYbRbd9UCiMdPfCzoVj+tPBFJVscTo8zEAoOITxj4fxYgTrpKLZ8yGRkQv/c2XATAsAJBznhgqN372kPzdqCnYvcHWLfrUFAvgrjCvfL2HajyS+1w+swMAh3ZdizYn1KLTjWCT3eKrk0mZr+yDNn9HWp9/m79jYjbHr92wdvKKdWvSFv+xWq2yzFn291zqkm8mwFQstUBRFGglIeoOAUAwHNTcblEUTBw7do3R5+v2Xzo6+EnV2AnWYvJP5mDY0e2aO3etG55baTp1XvxCD/Xpy+aoM27agM+ePAW7N5iTY1zkcW/cVV9dVdFoTs3VkSHzWHYWzvKcD8mtfO3uCqFYcm9uzjP/fFaS5gUA0oixCwDcTodm4ByOROwrVq04ubPj/eGg5oyBcl/5jmHDhnV0dnxWROYEQbW1tXGXUzvfRjBs+DT7nPmD2jP9nA5nLN/1DzJhAEBFZ8YiXKL/OO0FRYLNNnn3qRMKKVu+84cb1Bm/3onPnp4sonkuN+Cu/PI/W4aW83zGRzgNzKmvWSftLhthteY+jFo1eeS1Tl1lHv1OhgSqepkArWa2ABjz3Kg9pHZemden+YQKx2PXdnZ8IBCcorXd5/G+Yd61p3PanZrBRiQaQUo1N29bJolkEtGY9jgEp9O5O8fissIuAPOZfY8NXyO6qxndAgAAGHr0Q8B9Z2vu83p/DODG3Ar8otnxpZtfkm//6QcimwFDvUcCwycDNcOAir5A1QCgot/e/211fPk5NQWsfAd45FyNB1bm54KA0OhUNrk7OandTymFNeOvp2YinWwGQhYipv1WJxVrzu29pq4Wq1i69RiAfcp8ZXP9wUDa274/6D8u03FrNq8ZsmptQ9r4ASEEHE5Lp4v/pB2n5B8vuZzO9QDSkllIKREKh1Dm9eVRauECoYDuPqfD2WDGORkAmC/30ca5kOhb7AsslCm/fIed8zFqblGxZ3PaL4Xq331SPkXKGb94GR/+/fsZP1QzBDjhKuDwc4DyPtkVrFiA8WcAfccA2w9YfE2m8rg9Jvdw6wQ/wu7KHBVpPUFVswMA7R9Vi929PceSjCF0UoOnSqM11uV0/QOARgAQLFu2Zs3ICaNGrdU6LhyKaC7+U1FW3jZuxLgNudajgNUA4bTb5gI4Wmtfa0d70QKADr9+AGCziPlmnLMkvnQlrre8EialZQMATCm8iOKSML4FQAiRRO/RmgsxibbGnMcByHf+UIdZD3xf9wPlfYBL/w+4bRVw4jXZP/z3p2jE4/lMA4wGcz4kJ0Ht9a2kszzzwleKPb29P7DL3Lr6dXJD2Rwbcy5LmhhYWbr/IEAAmDCq9nWP253WBCSlRCIRuUnvuEAocqbWdp/HOzOfeuj+VcjOx6HYXK7X9Pa1tbcZfs+y1dLeorvPZrU9Y8Y5S+JLdxDIOV1mNuQ0TMBBEACY1fYpqgZprmWOtu1ueX1FRbblyPqZveXcf92q1/SNYccAv1kATJpa2OC7gEHdfOF2cx9Wfu2HtnB5M79VW2zpAcAew6c2fykZ1w1WAKzNpSjDpHTGHqRMHQNg6JehTCdlbyAU0Eyv3NDQUNbe0a6Z8MHjdP7d0CsSna8SOGbIIZ+4nE7NwSctRQwAdrdqZ/p1OZzxCWMmrMyxuKwwAOgal8lp+I6RBcqL4YHE0zgo/g1NWmatZqD2QECpAiNPODPbYuSyGS9g9wbtsRaDDgeufkM/P37WJ5FAMPcAQAqRPppdTQIBE1eJ7mjS3CxsrsxNuTZHenv/ns3m1bN9u36OiWB77k2qZgZViWRJjAEAAI/H97jW9vaOjj7Lly9PzxOQilybSKYv/uPzeCO1I2vn5FMHvRaAzjIB7j1WyHJvueZ31R8MIBwxfNXdTrX7OxCJap+33Fe2zqzzHgQPj5JggcRLchp+ZERhcjoGw4WZAAoazd5tmPXDOnTyC7ppZlOprJYylc3NXqx8S3uxeocXuOxZ/cx4uWjfpju4LhNhtWmPctuTewt3VhKRDG/tlo8zHSodvvS+ibZtumMKCrZd56XJ6VMR+CDnVQvN6Kr6HyWfsR7Zshj6B9bW1PyE3WZPi6xSqoqkBdcfuN0fDJ+vVY7P61uQbx30xgDILH9MvB73W3r7tjUZnnK/Uzub9bvC3C6HKc3/AAcBdiUXJJ6WV+JnkPgXBJZDYBcUZDcPSoUPEkMg8B2ouBiAM6vjSoMpP35i+DHrU3ccnhDblqXN0ZfhtsOzKmTxk79Ca6N2oPyt64CawcZUtnG59nbZSdOwYtXuOGxaBww9GobbthyaSy8rVqBh5muZDhXuslYAX83Bn0oAmxcAI441p65aqgfvFr9tK858L5Eo6UGAADBlypTkJws/X9O0e9eYA/eFw6GpAH6/7/+XUlrenvm+5spUXrcnq+yBucimBQAAnO6y+y0Wyw1aSwBvb9qJQ4YMM/MWfoWUElt2NGrus1ltUo2q95t17pL50h1EjoLAAwDmQGIdUtiQ1X8SSwG8AokrcHA9/GHmqHXRY7j2X1br1oFZ1Wznqu9r7nB4gON/ZlxFN32ms6OTP1F3uXZqU93yCrR1qfb2miEBcdeuzOuV233arznrPzWnrlt0XjDLeq3KpzhT2+gVpWS6AADA43Y8q7W9zd9+yP6LA61ct/qCSCx98R+n3ZEaN3LMc0bXS81y8axRgwdvqq6o0lxcp83fjo5Anvk98rCjeZdut0NlRcWaSZMmmZahiAEAFZ0peQC+IKoHLNTc0bHTJX/et/MVc9q2DtLcPvEHxi24IyWw4IX8ji3rN09z+4a5xtTtQKvf195e1b/TfkpR3nOxdl0/Mb6eiQiwdpZ2PVxl/82vUAMCVavOKHWLmb/FxgfYdmm/12a1pRUci8eVql49Ltn3/+su/lNWvkoIUbysOwCqysp0Vwddv8WkLjQNGzKcq8ztqzPz3AwAqOhMTbBSM0xzGVNICQw/6rudHS53b9Hu4B9mYJP1mg+B1i06N6eTUc3HT5uHir7pP6RNa4FdBucOiQaA1R9oV9NT9VKnx/capX1wwydAvhkV9aydtTcIOJDVDrSsftjYk+VAbzGgEuoCAIDa2tpgZVm55sp6oWj40n3/uyPQob34j8f170LOLw1YQbR2ZO1f3C7t2QCNO3YgEAzkWmTOtu3cgT1t2qP/y3w+/6G14/J8M8hOSX3p6OBUSFKPTo2b+hrcOsvUp5KndlIvq0jpJIyrMCj/klSBV3+jv7+TPABCCBW9RmnPdVvc+TM5Jyvf0R6wZ3VKbF/5j06PnzT1U83ZEokIsPS1Tg/Pid619x7dJG5Zkd9cLyMGq6o6LQApMwcBmsPjdb+qtd0f8E8EgLUb1x7rDwbTuittNpsUVaLz74vJhBCJmsqaWVr7VKli2Zr6HEvMTTyRwPK1+ueoqqjIOUNirhgAUNGZ+csnqqv9sm+tZmYcGWzpbBUzm26q2oRBU4Vm/xNoXFrYNfYapj2V6vN/GZtrf47OmK3+4xpFXX2n2YeEEBEMnqgdrCzMaTXYzIK7gUXaAYCo1JkaWmxCmjaux4xFZADAY3HdqWik5A2GQ476tfWT/aHI9VrHVfrKt07oPSHUWfldoUdZ1UVOh1OzK6K5ZQ8aNpvTFSClxJJVy3VXICz3ef2Txk683ezrZwBA3YC5qWtFj6HabeGtjQM6OTQKd6Xmj4NszHkWWbrNC4AZN3dya7JoHek7+l7NfpTdG4ElrxReTwBY9zHQoB1niKq+WTc1iH5jtQcRrJkJdOw0pq7v/kW7pUKxABb8Nd9iDWmpUnQSE8TChqxSqc2crvZRo0btqPCVayav2NXa8mpHR/spWvu8bpfBzT35GzJkSFPf3r11o8+V61Zjx66mXIrMyrI1K7G9Sf/7XllRc0tXXD8DACo+M7sAAIiqftrDzP07HfIPo3Vz9gohJCr7ab7ZikUvII8F5b60feXexX+Sha9BLk64do4cOEm7w/LdP2tP28tFMg68pBOo+HoksWPRb7Iua9ixf9PMzaAmgY/uK/heYOcqYLZ2S4UcePhmMf2VvCM3YUigGtd+mkTbSzKnh8/jeVdre2t7W3V7oCNt/IyiKLA4fXkHYfsIAxsOe/iqLvN5vZpJOKSUmL98MbZs35ZrsZpUVcXS1SuwcesW3c/0qK5ZM2nshAeNur5MGABQN2Dy4jX9x8/Q3Vc56nsZjy3vo/2Xv2sdMPdf+dVn7Szgbydl98ab5WAnZcgR2oOFtq8APrg3v3ru8+ZtwDbt56YYcuRrom5z1pl8xPgzFsnab2tnWpn1INC8Pv96xsPAExfrBlVKzaC6wm6EAaY+vEMrAJItW7POTNmdeDyuO3NZrqLcV9YyYcQIY56mBhkwYECkf5/e1yo6KwyqqopFK5diSf1yxBO5J+vaJxAKYta8TzM+/B12R8rjqTg1h2ILwgCAugNzB0Ades4c1AzWfl1X46dkOlT0OkQ/eJhxk362OS2xIPDC9cB9pwGR9iwPyvJPdPCRN6JqgHaH/1u35z/XfuaDwH/v1t7nrlRhk1flWqQy7js3ay58lIgCT1yU3/iKZBz45w91/z1kv/G7xeXPPZ3fTdhXSOFfUwFI+HqlDyzZ8Pkh8s3bRxd8gi42ZviYleW+sqyncJR5fHlOwcxWfo+02uG1jwzqN+C9TJ/ZtG0r3p8zC6sa1iAczf472u7vwMIVS/Dhp7PR7u/Q/ZwQAn179fj1pNrarVkXXpS7RWQkM3OsAxBCpPRWBpTBlkMzHnzot++V7irtfdEA8PeTgWVvZK5Ay2bgtVuBW0cAsx7S7DqQfUYHMGhS3nPhxDcu8ovxp2tPrUpEgIfOAjZ+nn2BahLyzduBl27U/fcR479zl7ji9ZyX8xOTL39WjvuOdvPH1iV765p1gASgrXFvUFWv8/ttc0ml/8ROp3x2zqDvaa9D0n/gI+1CNsx5Ty58xJZHiUVV5vXOzvazTof77mw/m5/811SYWDvhtD49e2Vsgoon4lizcT3e/fhDfDh3NpauXoF1mzagcecONLfsQXPLHmxr2olNjVuxaOVSvD9nJj76bA627tgOtZMuw749e797+NjD7zT3/nwVUwFT0Zk6DXCfyoErAZyYtr21sV+mw0T/o1pSj1+8HAueG6/5gVAr8Mg5QP8JwOgTgYoBgLNs70I0bVuAdbM7bdaWVQPjyuhjJ8ptazSS+uRwb3qdfRmGLP4eNs0vT9sX6QDu+RZw+m+Bk64FbC79cjbMBV64ASLT7IQRx68Tlzz9yzz+JQAAyhE/PFU2LlmqmWZ5zUzg9onABQ8CYzMs2ZCMAwueB17+JRDSX0pV1J72rPjJYzlEP+YSlX0/kEB6rtm1Hw2QAhvlm7efIs747WoDT2lqhO1xuO4BcEZnnyvz+kLjRo1amEWR2VySGUuIy4aGhrECSv2O5p2d5gLuCPgNyxjodrniNptl7YJli59OqmqVqqYqVFUtU9WUN5FMelSpOlPJlCORTNhSqZSSUlVht9lSvXr2+vVR4/MPGhgAUNF1xQRoUTPwA6kVAPh32eUdYweIW1c26h2r1J50qVzx1sKMyWq2LdPtJ8/I2yOljDtjiph633r1nm8Vdo1TpiTlO7d/XzZv+AihlvTbmkoAr/8O+Oh+4OiLgKHfBCq/iH+CLcCWhcDiGXvHDWTSZ3SHqKyaXFBdJ01dId/76/+Tr/+uTnOqZft24MHvAf3HA5POA4Yc+WXmxZ1rgMbFwGf/B/gzj9CWo05apEx/4aKCbuz/CjPoOVrd6xb4elyBwG6N4Oej/nLT/PrUP85cp1T2/wiuquWw2loRj1RDxkek2nceqzStHicGHzFTXPzYacZUqDC1o2o/em/2h9FAKJhxKmO5z9dtgjA9I0aMiEkpRy5aufS/W7Y3TpEmt07uE45E7Ju3bbsul2PiiYSlvb3jVgAMAKgE6Kb+7II/ssHH/gsO7x8R0xjUXz3iLGCl7hB08Y1LFsmXfv60/ODeHxtap8r+CTH2u6eK8+/7Im+vViiU2zrx4rTfzpKv/upq+dGDDyCuk0I8uBv47z0A7sm9zn3HtIkew0aJS1/Mfe3iA+t66s23ydd/21++/7fLdWdDbFuuv6hPJ+SIE9Yo7e8dWWg9jSbO+HObfOKil+X8/5yj+YFYUIiV74yUQNoiOvu+DNJRfgQKpAjkP6LtAD6Pd0EgFMyYHtPpcD1k1PkyXFXBPyZCiBSAE1dtWHVd4/Ydfw2EQt22WyaeiLkLOZ5jAKjrKJZ2ze02l2E/RHrEyGO2y4GHa7/CJ+Indnr8OXdfIo+8cHFnn8vaoEm7xYTTx4oL75v55f3R+HNUlJznCYrv//lBcfzPpsFbY+wE8KFHbxBVw0aIn77SbFSR4ru3XyFOvek+OMuMq6dihTjsrLeUAZVjRV2ek+CFJe07KY3MWb11+HkYPnl7vofLcKsn288mE0nNYec2u9OwVHdejzfjinUelzsxYfTYGdmW1ymhaI7CU4TSbtQpxgwbc++k2sNqhg4a9LLb5TIwo5ZxCk3yxACAuo6wzIZI/8pJT7XxmTY0KCMn/13z/MlIZwmBAACWS58+XBx3xeuwOvKvhLNMiklTnxXDBvQRP3zgqwvo2N3pD3sh1uZzGnH2nx8Vk684Rg47pvCHtbsqJY6YervyiznDxdWvtBRc3oF1PfO268RZt58qhx9beIdq9aC4OOaSK8W0F88QU1/M/0fbW5XWDyJ8NYZlrxN1daoYeNh4jDwxr3mPIh7KuvU24Pf/88BtHpc76bY6XjfqesaPqn2x3Femmzy/uqrqzVzK64zdZk0bIyGEABSbobMMqqur/RPHHHr2uGGjfSOHDL+rT49e2+w2e9f0C2TB7XK3FnI8uwCoy4jTbpkl/3X583LTvNMRDTikYk2Jin6bFU/5eV1y/jNu+718/gaHbPh4GkKtbqgpRXpr/Ep5379kXcYFD31PvvWnb8u1HzyJ9Z/0zjbVrvT2TCnDj/4Q5T2mifMf3qxZ9sgpV8tAy8PYs7EKQlHRc/gaLJqR95rp4vu3zwPQSz53za/lloU3YsvC6pz6sasGxMTgI16BsFwvLns259H+OdX1+Kvel1JW49Vb7pLrP/0JNn5ellNdqwfHxCGTH4crdIOY+nDhLUq9Tn9UPXzdj0Xj4glIRC3CWx0WQ4+5BTCuEUhMvacVwAj51KV3qes/uUrs2Zh9OmCrI+vg5pQppyydu2T+yh1NO8cCgN1mU3v37HnTkCFDss7fkNUtq+59psWizIjGYmUAICBgsVjiPo93QajFP9XIc1mS4uaayqoT2/wdQ1KplHA6HMmayspXDxszxuAVsPYaMGBABMDNAG6WUro2bN5wajga/nYkFp8Ui8UGJFNJVyql2pOppDWZSilSqjk3FyVTKahqdg1WNqsVLqcrWlNRnfdAXMCg8VfyCpwBgTcKL4m6mZh4FKblKC918o26iWjZdKvaun2iaN/WC6E2G9SUAotNhbsyKt2V7UpFnxVwVb6ITf98Ku/maKPq+9w1hyEauE627zxaBnf3FMHdXvh3WWGxS9gcEk5fCpUDdonyPkvgKHsFlzz2lOiSARoadf3vPT/AzjU/Udu2TBRNa3oh2GL5X34Aiw3w9UzB1zMgeg5fgIp+T+Dcu54vVl0Nud46KBg+/TIZaP4hWhsnINjsQ2C3Hck4YHdLWOyQTk9KKLYEynu3igGH/0Kcf++zuZxj0erlh7sttj5qhTqrtmdtp2s3lIonZ850/mTKFEODmWKSUtoAeDv5WEAIUWCKTwYAlBkDAOo25OoPqtG4uAr9Bm8RtVNNHzdCdLBjFwARlQQx+lstAAwfg0D0dcVBgERERF9DRgUA3XKKBBWsqH3WRERkHmMCAAU7Ci+EuqHGwosgIqLuyJgAoA9WANhY7Ishw71a7AoQEZE5DAkARB1UCFwDNhkfTLYghaznxxMRUWkxbBCgeARvQ2IqAMPShFLRfAYVU8TjKCjLFBERdV+GL8Qmr4QbwCkQGAqg2y6iQBokQlCxEI9hXiknVSEiIiIiIiIiIiIiIiIiIiIiIiIiIiIiIiIiIiIiIiIiIiIiIiIiIiIiIiIiIiIiIiIiIiIiIiIiIiIiIiIiIiIiIiIiIiIiIiIiIiIiIiIiIiIiIiIiIiIiIiIiIiIiIiIiIiIiIiIiIiIiIiIiIiIiIiIiIiIiIiIiIiIiIiIiIiIiIiIiIiIiIiIiIiIiIiIiIiIiIiIiIiIiIiIiIiIiIiIiIiIiIiIiIiIiIiIiIiIiIiIiIiIiIiIiIiIiIiIiIiIiIiIiIiIiIiIiIiIiIiIiIiIiIiIiIiIiIiIiIiIiIiIiIiIiIiIiIiIiIiIiIiIiIiIiIiIiIiIiIiIiIiIiIiIiIiIiIiIiIiIiIiIiIiIiIiIiIiIiIiIiIiIiIiIiIiIiIiIiIiIiIiIiIiIiIiIiIiIiIiIiIiIiIiIiIiIiIiIy1/8HVTm4tgHHbRYAAAAASUVORK5CYII=;" vertex="1" parent="1">
          <mxGeometry x="1400" y="210" width="220" height="110" as="geometry" />
        </mxCell>
        <mxCell id="WTigAZbQ8dtSHyCeWu5b-107" value="" style="shape=image;verticalLabelPosition=bottom;labelBackgroundColor=default;verticalAlign=top;aspect=fixed;imageAspect=0;image=data:image/png,iVBORw0KGgoAAAANSUhEUgAAAGQAAABkCAYAAABw4pVUAAAR9ElEQVR42u1deXRV5bX/7f2dc29GEiAq+kTLEl04Vq2tqBSNQXgVi8/5uaxadTkxBNBHcWgdqtYqIhAScJ6rb1kHbJ2VQRTrPCuivmplEIshc3LvPd+39/vjRkWE5Cbn3psE7mYtVv4493zD79vzPvsDcpSjHOUoRznK0RZB1NcXUFxV7gdGBgNgD+bLILCJ+JSlOUCyTWXzRnMrEj9xcOcEKieCYAxogQHPM/A/bRm/UHKAZIEGVo2ihGcHJuCOd5AJDroHVDm5GlIGfWLANxuY+/PE/3fdxOc0B0gGqOiGcuJ8yg/IlVu4qQ4yQoEooD9chipAFBjQax68WRE1z3DCtNRP7RvA9AlA+s8b5cUR7GMhky3c0QqUbIzDj0gVRNTsgZ/0lGcb9d5omrgoyAESRk9UjeKYZ3cMSM6w6s4S6OB2Dkjh1/rdEhn0lQHfbZRv9a35onHyIskB0gXqN6uCNE9LArVHW7jJAt1HoaZbU/4eF2HQR0a52oN5KOJ4fX3lIs0B0gHlzzic/AKNWpIRAWSKgztcoflpm2ZSzMUN6EVPeRarWaxOY22TX9AcIBvrieoKE+NgmEAnWLiTBBiQmZG0feHUYMCPsHJVRMwHTZMW2xwgAEprRpNlu71Ve1oAd7ZAh2RxXkqgVT74DqN8R9R5K+sqF+pWCUjZ3CMoYVxxADfWwk22kJ8B6vXQlByD3vOUqzw1j2mb1rdO6xkx1iOr7z+vIhIn9wsLd4FVN0aBgk7N2MwyyrdiLMbgRUZ5pgdvWcuERfEtGpB+cytYjBsawJ1rIacIdLueBeLHvguIQKBaA37QKNdE4H3cOGGh26IAKZ55GEmebmNJTnKQ8Q66G9Ae7uiVlrcCIGXQ5wZ8s1G6lwNe2zJlifZpQEpmVpDkaUEC9ghHMtVBhkM1AlAfiBEkWZcAy6A3DHgOq3nCd5Hmxspntc8B0q+6wrdk97Mkky3cr1W1ODliHwwwJ8MwLQb8tAczx1f/1XhLPIj/7kXt9YAMrBnNbZTY2UHOsXCnCXQH9CpFEXbD6N8e+H4DM98k6LPmKYulVwIyYHYFBRHpbyEnBnDjHWTPpJ7YMoDYSPELgz711NxslP/CCVrXfMFi7RWAFF03iqjQ5TkjhwbqpjrIocmw+BZOqgAoMMT/MOAbI2qe15hrbb5wqfYYICU1o7wEBXs6SKWFO1ahpb3Xcsqc8idQowE/7oFnk8PbrZOW2qwC0n9uBcXJ7mhZfusgZwl0J0Bp6wLixxYZg1Yb0N0sfFsU0X81THxOMgpI0YxDiAr8EktydABX6aA/hcJsdUzRMTbCRB96MNU+/IfQJnXNF6auX7yujCUF3g4B2VkOcpQC+SGBSBDwNSlqAUAJpQC2UaAwyyETJdA6Aq0F4BS6DYBB2sW92eCdLNC9A2iVg4zzo6YSwD/TziFFfxxOrixydhx2nqKdK7pHzoCWGeWbCfyaEdQpAGEUC2QXJfxKIMcIdEhSPGcOCwLqDPHtRvl+o7SKAHGsZQo9KoBUJkVxuFF8MRfz+sj1sctSiyKnfAqICAKUhAXDA9/nq7mYY7x2I1auBfBF8bxRSwIN7nTkLrKQE5ARi01BoCZWvogd3x2rXLphELG2tLriM3DwfgB3m0AHh7DESKEDVVM3vDjlBzkSUlMoSPEuObpM2nTt5uRq0/jnHZr5I6Nmkge+CUCADAQqGPQYO9wX/yEYAID6iQtdvkYXeuB5ABxCTIBAJKlvc1cAYTDIQ4ipGfACJHRl7H86ttVj0xdrbMIL9RHyrjagR0FphEQBKMVV9GFpkrbNPVY34TnH4CcI+Cacp0fG8/30AwKmcByisKq6InHhSylvrrSg1oN3sQEta9/JNLjCCgCtBFppf/9yhy+McmQdg9aH8fKIiIhN+gFxKhBoiLyzqgBdqotqm7ZEJUGfezAXMnhFGvlEAJIUDpEo4Lo9btKIExFJPyCNl76gCkhocdFV23jKEjXqvWHAv2Oir9MoujQD091UhEWCRJB+QAqvPJgonIXVbWqZsEgi5D9lYP5IQHPaPJDsEBuTAaXeLn57BBAAaD5/URDlyF0mafn0+pLQdoWe1L5M6QdEIFBoj5ZgNp23sNWArzOghxBWfKZmsoaWV4BqRnRI0lokG05MhBcU0uTqPOVLDOildqXZq4WWAk5cBgAhDRm5ShMiienL1CT4X0b4Aib6GEoZ5JD0vIO6kLbuQugEIIWX7aiuiDKggwDsC2AQgNUCvLr9/CPfbtSWaZbcraIY1N0a7MyDQoZNBvyQ9LB5578fMfdMGll1Jq8PGsmJ2xnQSwE8AeAhALcCeJiBOV+d/2RZgYs8bZSvIEJTZkQQpePnXWGQrih1QAk2w3jgG9Pgr/DWjJn83MwSBS4GcDkR7UtE+UTERFQI4GQGpn8z8bm8PI3c48NUEyjIqjGbumPoNBM6JHb5K/qdJgl5ZESVRGRbEdlfREaLyAkiMtKKFLRSjOvRcubfvnzpzDYba9vUHInIB3AeAdfVjX9+6LFDyquj7D+UkvedZR0CQK1z6Qck/8rhFNYPIQAJVYJiTwAPAHgWwKMA/gJgAQGVv9nrSF8ghS0Su3jasuqEU1mjm9RpVNAOyhP3jblizt+PmvneDgVlH1GWvb7UHMMM6BBKWuUcBg4GE6sWADoNoHIiGkhEBUTkE1F/Ikw5f78TDmYicipl937y9MkLPl/6mqq2bMpAaxdhg4no+PId9v/9/aOvkp2LBzWlcrSzYpsQASBmzoCnrsl/oUSCYSYAhwM4mjbtdW1X5OcfY8h4CqDVxQdPWDpj2Du1n74JxWbTPASAiQpHDNp7jxsOmdw8MK8k3jvYJOkYIhMJqrbLX1ElClMFToMKB+YT8BsAJZvlQqJB3rd2oirWxRqGTf9HzbB1sXrb2cKYyBu38yEDLzngjPUFXr7rykZkhI2SwztrbfoByb/yIAozRSLgZ9sNGwzgFx3ZgaqakG9znkQAlJaueXvbq9+40zXbtsbO0qGGOHLu7uNKz9nrmHrf+Lo5TsmmO5WRWBaBko5hCNomv39/Ako7eSwuPxCNhEAcbl3+N++y129dnhC7qmPgCfkmkn/p/qfnH7fLYW1M3HOBE2qX1BlxDNNwpJw6SSGnQpuquIu7wJv//iPDqt7/67tOpbGzuQ6IFBVce+B4f+T2+wbUg7Gsrm5c6kpdFUohMoYK1MebmwC0djuOJbbkurfuOXDh6jdXqWrQETeDgJ2KtvVnHFIZH1o6uG2LcwxVNZRjqADqY03NADrbnIR2oCjWx5vKJi6d0f/99f/8UFU3q7jbDQTsN3DXgusOnlhfllca7ykd4jIRfmdmCqtD2ve5M1BFO3xG8X8Nqwedueia6JrW2o/1u9du1vLisYMPGnDxAad/XeBFg3Ah++46hpnKGIaxsgAU+HkRAJHO5tTxOASF0jvffLLbGQuvqmsMWpd3tsEecfTc3Y8eeO5ex9b5xpNktVS21AcxZcYxFAiFcwwL/bx8dF6JmMK36gSBmsVr3jpg2stzVyfEfpWC5VV4yf6n+0cMPnAlEwkRp7DmtCgS6Yo/nbpjeNkrCoRyDNESxGIA4p0cKj9VTnTi8u5d8fTw6g8e+sipNGgnoAyIFJXecPCkL8uiJa95lIXygOSExNoMAJJ/5fBQjqEC+KLxq1oAn3ck9BUIUo41ECHuguKrXr9z78c+f/E1VW3thFNot5LBQ68+8Lzbt/H7r84Si1BGdAgRgcMpdf2sflWDQGcCeF1VG1U1pqpuA6UvTmSFE0mdEwloDFq2nbh0xpB3aj/9QLVj+UBA6W/3OLJ1v+Jdv0nh1enQIZnLGIZLiSviNiEKegrAOABjoTgOiitUtaH9odXrYw3PSDeCUGvb6nY5/4Xry9a01a7sJLzSZMC1C06eoSnKHAonsjIUXEw6hghbdaIRZmHmtcz8Eht+UhVzALyiqlDgyTvf//sKaLeigvTmuo9/Mv2VeV6TbWva1OFR1WYAcwF8mKJEpOT/oXjFZagMKNluIryO29gGoWYALwFYrsBt933weNDdQUSVH/ls8fY3vvu/rQlnWzbEtf3vxeq0mplT9NyJwkouVajLSBkQcejg4qaW5kVIobgbwH8DeNuJBULEzWMuzrPeub903gcPv+NU1mwASgyKBS6wDVkNnxBMxjKGmYo4sOGVzPyex+ysurBZDDQFrdE/vHrLkGtev6vGqdykqk8BuAaKRyMFUQ1zgLpxAKkrZSepV52IQEkz3qYoUAsNlVkiQAmtLr7Dn966+9ihdxxbHbeJ41T02kQ8URdWxHZPkmai6uSKVzR0VUcKB8Wmo2S3fZwAbv/V8do/9as5vJ/xjMsrzMuqtGr/xkgykzG8YgSFK3JIsXg5vUKRHOmR4uMPZvbwovSYId1xDL30AwKikJ8jEDFRp0eU2GMCRdIIiieEM9k34/2qg7r0XoGaZB9I7T6nEpmMeOrJqpNQR8Zj5n3yZ43scMyApEyJdqJ0hWMJAGm+I51OxhxfUD0ypUNVfGM5xSUxRJKNBEIM37XWVKkrdZVwjiEBAjfOeTLEXHPgJmdYXFNuBPprTbaKTavtqcAAS3JtQO7I/LkjO5Uhkq+FDu4sBUq7LUcVUIVzmdAhmvQ2Qx1bAXZ3rFeZfpH/yL/+lz94V3F1uZ+g4D8t3HR0njPp7v7s5EhvsSzTotUjdyyqOvxH6y+pKqfC+YeVBXAXWZWTQpcSQVW68I1hlxw9BpopmdHj7m2IsgAnwsjOKOQ7/epfviUqMc/wtnEEYx3kVIFul8kEq0IHWZI/MunJwvJUtGbEMgWtcqoxj7lfHG4/p3KihRwMaKTbYZNkGEyhaOiqhE2ZCmsOHZIgN99ByjXUKVYAZKFoBBCAUAigMKO9TTY7DcShaGmfRx6AImh74/9ugdGuaYmsUXqZnTkvUbl0eUY4JM/6X6hHpxLJyQ7ufIHuBlXu+sQpOTZt1N892y2ekuNFQRtlMbttUCigpEz0uad8C4u5R2O0NmMc8i0VzK1gZTfUkTvXwp2iiu2S7XW27qZZBNQa5QeNmhrfeR83Te56A+ZQO1hcfXjEsvu5hVzg4MYotHBr7GRGQBsrLzLgGz0xy1pbbUKnd6+FbOjdK545mjTPFgXkfuXgpjjIz3uwqX62FZAz4HcNuIqdeUxb0BC7aHHPNcHckIqqRpN4wSAHd7rN/rUTWbcEGLTSh7mT1dwelejKuklP9442sT+y4+ceYQIvGGZVJjq4EwU6YAvCAZy8CGaBgZmTJ/77dROfS+tFMBk5wdEbRlNegUQTsCMsXPvVRe09Gvuunogb8EsezCxPvEWuDbHWaQt7f6vxH+iXWWMIUVuSQPBfDm6Sg/4UUNNnJFmyWbIY0HJDpsZX70Ev4a2vn9oHm/FvSKVzR1PCJHZ0G15/1wdQIdBXniav24s4/4uGyc9nob9KFql03igvhmAvJakMVI75vhN2rxNPTQbmcaM8xzh6q6VySZDFsbNL/p/LKdqP8yy5w5zaC7+/QrVXaO3AA79mYGYaNc9KK1rbpmX3rsMeExv9qseQsB1oyR5v1U10kN0RMiPZLQySu6AM+tSHuclT7wEv8L6un/Ls1nMp2IY08Kax3CatQyzs2RZymkK3z5rCJgKD1hnwA56a+b76n3SnX/sWBch3jmXNKN9SsF+7t3+UKoozOUNStDLxMx54VkT8VxsnLkz0Ev3Veyh/ZgVxRAotuyMcyRQHGQ4gkrYLepJcYRn0plGe46l5QhNoartgSe7q1Y6ooKqCxNhthORkBzlfoLuG0y+azI4Rf8FKNxuYezlBX7VOXZK7nLhLHDO7nMWXoUJynoOcoqrbdn3GCgKt98B/ZeVqz5nlzZWLXW9dc59wmQvnV0Ss2uEObqpAjkg1zE9AzICXGOVZRmlpPM4xe+Hi3h6i6RtUNHs0OT8oduTGOrgpAt0fm894Olb6wICrfJhHEaf6ljRd2pUDZCPKm1NO8GR7ITnVQc4R1SHfXbdEAIFWeuC7WOh2XyIrmyqfl760vj6bryieN8pY2N2TQUs3TgFjlJ9ipTm++u81T1pk++K6+nQCqWTWKHKeizoju0LJkKMVEqdYLMvhjhzlKEc5ylGOcpSjH9H/A6TjhmQB+AcaAAAAAElFTkSuQmCC;" vertex="1" parent="1">
          <mxGeometry x="645.5" y="821" width="60" height="60" as="geometry" />
        </mxCell>
        <mxCell id="WTigAZbQ8dtSHyCeWu5b-108" value="MICROSERVICES" style="text;html=1;fontSize=24;fontStyle=1;verticalAlign=middle;align=center;fontColor=#000000;" vertex="1" parent="1">
          <mxGeometry x="1017.5" y="940" width="100" height="40" as="geometry" />
        </mxCell>
        <mxCell id="WTigAZbQ8dtSHyCeWu5b-109" value="DOCKER HOST" style="text;html=1;fontSize=24;fontStyle=1;verticalAlign=middle;align=center;fontColor=#66B2FF;" vertex="1" parent="1">
          <mxGeometry x="616.95" y="40" width="100" height="40" as="geometry" />
        </mxCell>
      </root>
    </mxGraphModel>
  </diagram>
</mxfile>
